<svg xmlns="http://www.w3.org/2000/svg" width="96" height="96" viewBox="0 0 96 96" fill="none">
<path d="M0 86.065C0 92.3651 3.6368 96 9.62202 96H86.378C92.355 96 96 92.3651 96 86.065V9.86977C96 3.50454 92.5589 0 86.1904 0H9.80956C3.44109 0 0 3.50454 0 9.86977V86.065Z" fill="#D90000"/>
<path d="M48.738 46.1866C48.738 62.9432 36.9714 70.3516 25.6696 70.3516H7.14313V67.0427C10.6576 66.7819 11.9541 65.2904 11.9541 59.8951V33.9778C11.9541 28.5824 10.6576 27.8081 7.14313 27.6125V24.0428H25.6614C37.2405 24.0346 48.738 29.8783 48.738 46.1866Z" fill="white"/>
<path d="M79.7404 27.4087L81.9502 24.0346H84.4862V39.8213H81.9502L80.2623 35.9908C78.0525 31.0437 74.7989 27.8 69.8656 27.8H69.3437C65.7069 27.8 61.9315 29.6174 61.9315 34.1C61.9315 39.2997 66.025 40.5304 70.3141 42.0871L74.538 43.6437C81.1674 46.048 86.1741 48.9739 86.1741 57.3522C86.1741 65.7957 78.9576 70.8651 70.3141 70.8651C64.916 70.8651 61.0835 68.4608 59.1998 66.4477L56.7291 70.3435H53.9974V54.5649H57.1857L58.9389 58.3954C61.2139 63.5952 65.6335 66.5129 69.5965 66.5129H70.0532C74.538 66.5129 78.0443 63.9782 78.0443 59.4305C78.0443 54.0351 73.7552 52.2828 69.466 50.7262L65.3074 49.2347C59.9827 47.2868 54.5193 44.1001 54.5193 35.8522C54.5193 27.6043 62.4452 23.513 69.0746 23.513C74.7989 23.513 78.2482 26.0477 79.7404 27.4087Z" fill="white"/>
<path d="M39.7275 48.6235V45.0537C39.7275 33.0975 32.511 27.8407 25.0417 27.8407H20.4916V66.2929H25.0417C32.7719 66.2929 39.7275 60.058 39.7275 48.6235Z" fill="#D90000"/>
</svg>